<svg xmlns="http://www.w3.org/2000/svg" width="487.586" height="306.255" viewBox="0 0 487.586 306.255">
    <defs>
        <clipPath id="dy72gx05xa">
            <path data-name="Rectangle 30" style="fill:none" d="M0 0h487.586v224.359H0z"/>
        </clipPath>
        <clipPath id="a90094521b">
            <path data-name="Rectangle 22" style="fill:none" d="M0 0h123.27v29.07H0z"/>
        </clipPath>
    </defs>
    <g data-name="Apple Music Lockup-Small-Desktop">
        <g data-name="Group 110" style="clip-path:url(#dy72gx05xa)" transform="translate(0 57.072)">
            <path data-name="Rectangle 34" transform="translate(28.311 11.151)" style="fill:#0044d0" d="M0 0h429.43v76.01H0z"/>
            <path data-name="Rectangle 35" transform="translate(367.254 184.454)" style="fill:#0044d0" d="M0 0h109.658v32.684H0z"/>
            <path data-name="Path 118" d="M419.484 201.363H415.6v6.916h3.881a3.47 3.47 0 1 0 0-6.916" transform="translate(-12.666 -7.852)" style="fill:#fff"/>
            <path data-name="Path 119" d="M475.574 185.225h-91.845a23.179 23.179 0 0 0 0 46.357h91.845a23.179 23.179 0 0 0 0-46.357m-73.042 15.509h-12.676v5.688h10.818v6.878h-10.818v9.208h-8.877v-28.65h21.553zm19.657 21.773s-1.446-3.642-1.817-4.543c-.7-1.842-1.363-3.847-4.294-3.847h-2.147v8.39h-8.919v-28.649h13.461c7.969 0 11.932 4.421 11.932 9.495a7.849 7.849 0 0 1-5.285 7.776c1.115.613 2.519.982 4.789 6.712.248.573 1.859 4.666 1.859 4.666zm32.993 0H433.01v-28.649h21.553v6.876h-12.676v4.175h9.7v6.384h-9.7v4.3h13.3zm24.86 0h-22.173v-28.649h21.553v6.876h-12.676v4.175h9.7v6.384h-9.7v4.3h13.3z" transform="translate(-10.993 -7.223)" style="fill:#fff"/>
            <path data-name="Path 120" d="M436.788 0H50.8a51.181 51.181 0 0 0 0 102.359h385.99A51.181 51.181 0 0 0 436.788 0M99.853 53.545a41.022 41.022 0 0 1-1.8 11.972 30.313 30.313 0 0 1-5.579 10.531 27.9 27.9 0 0 1-9.7 7.453 32.518 32.518 0 0 1-14.164 2.837A32.154 32.154 0 0 1 54.885 83.6a28.25 28.25 0 0 1-9.749-7.308 30.194 30.194 0 0 1-5.774-10.482 40 40 0 0 1-1.892-12.261V17.484h20.957v40a15.86 15.86 0 0 0 .63 4.472 12.46 12.46 0 0 0 1.843 3.851 8.839 8.839 0 0 0 3.154 2.693 10.807 10.807 0 0 0 9.119 0 9.318 9.318 0 0 0 3.2-2.693 11.95 11.95 0 0 0 1.892-3.847 15.9 15.9 0 0 0 .63-4.472v-40h20.958zM175.914 84.8h-22.993l-24.156-42.314V84.8h-19.21V17.484h25.612l21.441 37.5v-37.5h19.306zm57.141 0h-47.44V17.484h20.956v51.064h26.484zm71.017-20.387a32.187 32.187 0 0 1-18.481 19.04 46.621 46.621 0 0 1-32.16.048 33.629 33.629 0 0 1-11.546-7.646 31.309 31.309 0 0 1-6.985-11.2 39.18 39.18 0 0 1-2.328-13.512 37.879 37.879 0 0 1 2.522-13.943 31.824 31.824 0 0 1 7.276-11.155 33.849 33.849 0 0 1 11.593-7.406 45.95 45.95 0 0 1 31 0 33.791 33.791 0 0 1 11.637 7.403 31.891 31.891 0 0 1 7.279 11.158 39.4 39.4 0 0 1 .193 27.215m72.278 9.135a25.62 25.62 0 0 1-5.288 5.434 36.275 36.275 0 0 1-9.168 5.1 37.09 37.09 0 0 1-13.777 2.259 42.655 42.655 0 0 1-15.62-2.693 33.169 33.169 0 0 1-11.593-7.4 31.69 31.69 0 0 1-7.179-11.107 38.171 38.171 0 0 1-2.474-13.9 38.555 38.555 0 0 1 2.474-13.943 32.1 32.1 0 0 1 7.179-11.2 32.867 32.867 0 0 1 11.596-7.463 42.674 42.674 0 0 1 15.62-2.693 38.558 38.558 0 0 1 12.176 1.732 37.367 37.367 0 0 1 8.877 4.182 28.76 28.76 0 0 1 5.918 5.049 23.348 23.348 0 0 1 3.1 4.328l-15.812 10.482a23.263 23.263 0 0 0-1.649-2.693 14.094 14.094 0 0 0-2.814-2.933 17.353 17.353 0 0 0-4.171-2.4 14.555 14.555 0 0 0-5.628-1.01 13.969 13.969 0 0 0-11.35 5.531 19.251 19.251 0 0 0-3.007 5.913 23.38 23.38 0 0 0-1.067 7.116 22.909 22.909 0 0 0 1.067 7.068 18.722 18.722 0 0 0 3.007 5.818 13.779 13.779 0 0 0 4.851 3.943 14.42 14.42 0 0 0 6.5 1.442 15.556 15.556 0 0 0 6.5-1.2 15.329 15.329 0 0 0 4.269-2.789 13.564 13.564 0 0 0 2.522-3.173q.874-1.586 1.164-2.259l16.009 10.1q-.487.77-2.232 3.365M425.342 84.8l-16.978-25.678a29.419 29.419 0 0 1-2.618 1.443q-1.555.771-2.329 1.249V84.8h-20.956V17.484h20.956v24.233a74.377 74.377 0 0 0 8-5.866 66.915 66.915 0 0 0 6.5-6.251 55.137 55.137 0 0 0 4.947-6.3 45.163 45.163 0 0 0 3.349-5.817h22.6a70.938 70.938 0 0 1-9.654 16.636 78.38 78.38 0 0 1-15.184 14.906L451.247 84.8z" style="fill:#fff"/>
            <path data-name="Path 121" d="M56.691 170.832H41.016l-3.293-9.081H18.254l-3.221 9.081H0l18.109-49.664h20.545zM22.048 150.47h12.025l-6.012-16.318z" transform="translate(0 -4.725)" style="fill:#fff"/>
            <path data-name="Path 122" d="M88.14 121.167a23.473 23.473 0 0 1 7.384 1.135 17.166 17.166 0 0 1 6.023 3.406 15.892 15.892 0 0 1 4.051 5.606 19.02 19.02 0 0 1 1.47 7.733 19.693 19.693 0 0 1-1.435 7.769 15.854 15.854 0 0 1-3.947 5.64 16.792 16.792 0 0 1-5.993 3.441 23.6 23.6 0 0 1-7.569 1.171h-9.76v13.764H62.9v-49.665zm-3.047 23.91a6.364 6.364 0 0 0 4.831-1.762 5.916 5.916 0 0 0 1.682-4.232 5.976 5.976 0 0 0-1.646-4.091 6.211 6.211 0 0 0-4.867-1.834h-6.729v11.919z" transform="translate(-1.917 -4.725)" style="fill:#fff"/>
            <path data-name="Path 123" d="M137.309 121.167a23.473 23.473 0 0 1 7.384 1.135 17.166 17.166 0 0 1 6.023 3.406 15.892 15.892 0 0 1 4.051 5.606 19.02 19.02 0 0 1 1.47 7.733 19.693 19.693 0 0 1-1.435 7.769 15.854 15.854 0 0 1-3.947 5.64 16.792 16.792 0 0 1-5.993 3.441 23.6 23.6 0 0 1-7.569 1.171h-9.759v13.764h-15.462v-49.665zm-3.047 23.91a6.364 6.364 0 0 0 4.831-1.762 5.916 5.916 0 0 0 1.682-4.232 5.976 5.976 0 0 0-1.646-4.091 6.211 6.211 0 0 0-4.867-1.834h-6.729v11.919z" transform="translate(-3.415 -4.725)" style="fill:#fff"/>
            <path data-name="Path 124" d="M196.242 158.841v11.99h-35v-49.664H176.7v37.674z" transform="translate(-4.914 -4.725)" style="fill:#fff"/>
            <path data-name="Path 125" d="M240.281 158.841v11.99h-38.509v-49.664h37.435v11.99h-21.974v7.166h16.82v11.068h-16.82v7.45z" transform="translate(-6.149 -4.725)" style="fill:#fff"/>
            <path data-name="Path 126" d="M306.977 170.832v-33.2l-10.307 28.73h-9.591L276.7 137.627v33.2h-14.243v-49.66h21.258l8.375 23.839 8.447-23.839h20.758v49.665z" transform="translate(-7.998 -4.725)" style="fill:#fff"/>
            <path data-name="Path 127" d="M352.025 171.967a23.717 23.717 0 0 1-10.129-2.022 20.845 20.845 0 0 1-7.193-5.392 22.3 22.3 0 0 1-4.259-7.733 29.5 29.5 0 0 1-1.4-9.046v-26.607h15.461v29.515a11.7 11.7 0 0 0 .465 3.3 9.207 9.207 0 0 0 1.359 2.838 6.53 6.53 0 0 0 2.327 1.986 7.971 7.971 0 0 0 6.728 0 6.865 6.865 0 0 0 2.362-1.986 8.82 8.82 0 0 0 1.4-2.838 11.766 11.766 0 0 0 .465-3.3v-29.515h15.46v26.606a30.28 30.28 0 0 1-1.324 8.833 22.385 22.385 0 0 1-4.115 7.77 20.613 20.613 0 0 1-7.158 5.5 24 24 0 0 1-10.45 2.093" transform="translate(-10.028 -4.725)" style="fill:#fff"/>
            <path data-name="Path 128" d="M410.8 141.341a22.02 22.02 0 0 1 5.834 1.986 17.622 17.622 0 0 1 4.473 3.228 14.083 14.083 0 0 1 2.9 4.222 12.3 12.3 0 0 1 1.038 5.038 14.9 14.9 0 0 1-1.289 6.1 13.969 13.969 0 0 1-4.008 5.144 20.328 20.328 0 0 1-6.944 3.547 34.241 34.241 0 0 1-10.092 1.313 32.065 32.065 0 0 1-17.394-4.618 24.261 24.261 0 0 1-4.473-3.454q-1.61-1.656-2.112-2.222l8.8-7.87a22.373 22.373 0 0 0 1.682 1.632 19.582 19.582 0 0 0 3.257 2.306 26.09 26.09 0 0 0 4.689 2.092 17.837 17.837 0 0 0 5.834.923 8.372 8.372 0 0 0 4.617-1.137 3.432 3.432 0 0 0 1.753-2.985 3.507 3.507 0 0 0-1.145-2.452 7.7 7.7 0 0 0-4.008-1.741q-.5-.141-1.826-.39t-2.827-.569q-1.5-.319-2.9-.6t-1.968-.426a23.5 23.5 0 0 1-5.476-1.707 15.255 15.255 0 0 1-4.3-2.913 12.415 12.415 0 0 1-2.827-4.194 14.579 14.579 0 0 1-1-5.615 13.966 13.966 0 0 1 5.833-11.692 20.5 20.5 0 0 1 6.8-3.2 33.4 33.4 0 0 1 8.911-1.1 30.449 30.449 0 0 1 9.2 1.242 30.029 30.029 0 0 1 6.514 2.838 21.372 21.372 0 0 1 4.044 3.05q1.431 1.456 1.718 1.81l-8.732 7.947q-.644-.5-1.9-1.455a23.32 23.32 0 0 0-6.729-3.512 14.2 14.2 0 0 0-4.545-.71 6.628 6.628 0 0 0-4.331 1.136 3.515 3.515 0 0 0-1.324 2.767 3.7 3.7 0 0 0 1.181 2.625 7.56 7.56 0 0 0 3.9 1.774q.429.071 1.718.319t2.756.567q1.464.32 2.827.568t1.86.39" transform="translate(-11.542 -4.679)" style="fill:#fff"/>
            <path data-name="Rectangle 29" transform="translate(417.796 116.442)" style="fill:#fff" d="M0 0h15.461v49.665H0z"/>
            <path data-name="Path 129" d="M451.675 146.024a28.441 28.441 0 0 1 1.826-10.288 23.682 23.682 0 0 1 5.3-8.266 24.256 24.256 0 0 1 8.553-5.5 31.479 31.479 0 0 1 11.524-1.986 28.45 28.45 0 0 1 8.984 1.277 27.507 27.507 0 0 1 6.549 3.087 21.213 21.213 0 0 1 4.367 3.725 17.183 17.183 0 0 1 2.29 3.192L489.4 139a17.262 17.262 0 0 0-1.217-1.986 10.4 10.4 0 0 0-2.076-2.164 12.8 12.8 0 0 0-3.078-1.774 10.751 10.751 0 0 0-4.151-.745 10.308 10.308 0 0 0-8.374 4.08 14.2 14.2 0 0 0-2.219 4.363 17.253 17.253 0 0 0-.787 5.25 16.907 16.907 0 0 0 .787 5.214 13.809 13.809 0 0 0 2.219 4.293 10.17 10.17 0 0 0 3.578 2.909 10.651 10.651 0 0 0 4.8 1.064 11.463 11.463 0 0 0 4.8-.887 11.245 11.245 0 0 0 3.149-2.058 10.02 10.02 0 0 0 1.861-2.341q.644-1.171.859-1.667L501.35 160q-.359.569-1.646 2.483a18.877 18.877 0 0 1-3.9 4.008 26.7 26.7 0 0 1-6.764 3.76 27.352 27.352 0 0 1-10.164 1.667 31.479 31.479 0 0 1-11.524-1.986 24.479 24.479 0 0 1-8.553-5.463 23.365 23.365 0 0 1-5.3-8.194 28.153 28.153 0 0 1-1.826-10.252" transform="translate(-13.765 -4.679)" style="fill:#fff"/>
            <path data-name="Path 130" d="M266.594 33.284a1.834 1.834 0 0 1 2.88-1.491l27.639 19.085a1.807 1.807 0 0 1 0 2.981l-27.639 19.084a1.834 1.834 0 0 1-2.88-1.491z" transform="translate(-8.125 -1.227)" style="fill:#fff"/>
            <path data-name="Path 131" d="M26.216 214.5a11.522 11.522 0 0 1-.755 4.154 10.148 10.148 0 0 1-2.222 3.481 10.7 10.7 0 0 1-3.56 2.39 12.317 12.317 0 0 1-4.812.882 12.35 12.35 0 0 1-4.789-.882 10.556 10.556 0 0 1-3.56-2.367 10.044 10.044 0 0 1-2.2-3.458 11.654 11.654 0 0 1-.755-4.2v-22.323h4.313v21.129a8.028 8.028 0 0 0 1.893 5.747 6.728 6.728 0 0 0 5.119 1.992 6.525 6.525 0 0 0 5.184-2.085 8.276 8.276 0 0 0 1.829-5.654v-21.129h4.315z" transform="translate(-.109 -7.494)" style="fill:#fff"/>
            <path data-name="Path 132" d="M38.365 213.99v10.675H34.05v-32.488h10.206a11.508 11.508 0 0 1 4.822.927 9.379 9.379 0 0 1 3.317 2.46 10.115 10.115 0 0 1 1.916 3.5 13.391 13.391 0 0 1 .624 4.061 13.023 13.023 0 0 1-.667 4.2 9.99 9.99 0 0 1-1.98 3.458 9.177 9.177 0 0 1-3.314 2.344 11.787 11.787 0 0 1-4.67.858zm12.255-10.86a7.249 7.249 0 0 0-.388-2.281 6.823 6.823 0 0 0-1.165-2.143 5.812 5.812 0 0 0-1.985-1.566 6.46 6.46 0 0 0-2.892-.6h-5.825v13.088h5.825a6.358 6.358 0 0 0 2.935-.622 6.14 6.14 0 0 0 3.129-3.663 7.3 7.3 0 0 0 .366-2.212" transform="translate(-1.038 -7.494)" style="fill:#fff"/>
            <path data-name="Path 133" d="M89.976 192.176v4.363h-8.8v28.125h-4.318v-28.125H68.1v-4.363z" transform="translate(-2.075 -7.494)" style="fill:#fff"/>
            <path data-name="Path 134" d="M121.43 208.436a19.631 19.631 0 0 1-1.058 6.451 16.7 16.7 0 0 1-3.042 5.407 14.435 14.435 0 0 1-4.833 3.713 15.06 15.06 0 0 1-17.757-3.62A15.923 15.923 0 0 1 91.677 215a20.127 20.127 0 0 1-1.058-6.568 19.755 19.755 0 0 1 1.079-6.567 16.765 16.765 0 0 1 3.085-5.431 14.446 14.446 0 0 1 4.855-3.689 15.819 15.819 0 0 1 12.773 0 14.437 14.437 0 0 1 4.855 3.689 16.783 16.783 0 0 1 3.085 5.431 19.78 19.78 0 0 1 1.079 6.567m-15.406-12.67a10.053 10.053 0 0 0-4.66 1.043 10.429 10.429 0 0 0-3.43 2.8 12.635 12.635 0 0 0-2.136 4.03 15.877 15.877 0 0 0 0 9.543 12.34 12.34 0 0 0 2.136 4.007 10.533 10.533 0 0 0 3.43 2.779 10.937 10.937 0 0 0 9.321 0 10.543 10.543 0 0 0 3.43-2.779 12.043 12.043 0 0 0 2.115-4.007 16.33 16.33 0 0 0 0-9.543 12.326 12.326 0 0 0-2.115-4.03 10.439 10.439 0 0 0-3.43-2.8 10.056 10.056 0 0 0-4.661-1.043" transform="translate(-2.762 -7.464)" style="fill:#fff"/>
            <path data-name="Path 135" d="M136.783 218.276q.129.14.648.58a8.881 8.881 0 0 0 1.381.927 10.169 10.169 0 0 0 2.115.859 9.833 9.833 0 0 0 2.8.371 6.259 6.259 0 0 0 4.337-1.525 5.243 5.243 0 0 0 1.7-4.114 6.761 6.761 0 0 0-.28-1.825 4.939 4.939 0 0 0-.971-1.826 5.276 5.276 0 0 0-1.9-1.387 7.358 7.358 0 0 0-3.064-.554H141.1v-3.806h2.071a5.373 5.373 0 0 0 4.164-1.486 4.988 4.988 0 0 0 1.36-3.481 5.825 5.825 0 0 0-.324-1.879 5 5 0 0 0-.971-1.694 4.887 4.887 0 0 0-1.639-1.207 5.581 5.581 0 0 0-2.373-.464 7.1 7.1 0 0 0-2.308.348 7.627 7.627 0 0 0-1.748.836 8.182 8.182 0 0 0-1.229.974q-.5.487-.712.719L134.8 195.4c.115-.155.381-.448.8-.882a9.892 9.892 0 0 1 1.683-1.345 11.607 11.607 0 0 1 2.611-1.23 12.564 12.564 0 0 1 7.875.209 8.564 8.564 0 0 1 2.977 2 8.149 8.149 0 0 1 1.769 2.877 9.975 9.975 0 0 1 .582 3.389 8.258 8.258 0 0 1-.409 2.622 8.816 8.816 0 0 1-1.058 2.181 6.5 6.5 0 0 1-1.489 1.578 4.985 4.985 0 0 1-1.747.858 6.528 6.528 0 0 1 1.942.789 7.216 7.216 0 0 1 1.877 1.6 8.622 8.622 0 0 1 1.4 2.413 8.834 8.834 0 0 1 .561 3.272 10.754 10.754 0 0 1-.583 3.481 8.807 8.807 0 0 1-1.812 3.086 9.14 9.14 0 0 1-3.194 2.229 11.641 11.641 0 0 1-4.682.858 15.53 15.53 0 0 1-4.078-.469 13.027 13.027 0 0 1-2.848-1.1 9.618 9.618 0 0 1-1.813-1.244q-.668-.608-.928-.891z" transform="translate(-4.091 -7.464)" style="fill:#fff"/>
            <path data-name="Path 136" d="m184.9 218.863-9.321-21.21v27.012h-4.315v-32.489h6.266l9.29 20.886 9.248-20.886h6.18v32.489h-4.316v-27.013l-9.364 21.21z" transform="translate(-5.219 -7.494)" style="fill:#fff"/>
            <path data-name="Path 137" d="M239.333 208.436a19.63 19.63 0 0 1-1.058 6.451 16.7 16.7 0 0 1-3.042 5.407 14.435 14.435 0 0 1-4.833 3.713 15.06 15.06 0 0 1-17.757-3.62A15.923 15.923 0 0 1 209.58 215a20.126 20.126 0 0 1-1.058-6.568 19.756 19.756 0 0 1 1.079-6.567 16.765 16.765 0 0 1 3.085-5.431 14.446 14.446 0 0 1 4.855-3.689 15.819 15.819 0 0 1 12.773 0 14.437 14.437 0 0 1 4.855 3.689 16.783 16.783 0 0 1 3.085 5.431 19.78 19.78 0 0 1 1.079 6.567m-15.406-12.67a10.053 10.053 0 0 0-4.661 1.043 10.43 10.43 0 0 0-3.43 2.8 12.635 12.635 0 0 0-2.136 4.03 15.877 15.877 0 0 0 0 9.543 12.34 12.34 0 0 0 2.136 4.007 10.533 10.533 0 0 0 3.43 2.779 10.937 10.937 0 0 0 9.321 0 10.543 10.543 0 0 0 3.43-2.779 12.043 12.043 0 0 0 2.115-4.007 16.33 16.33 0 0 0 0-9.543 12.327 12.327 0 0 0-2.115-4.03 10.439 10.439 0 0 0-3.43-2.8 10.056 10.056 0 0 0-4.66-1.043" transform="translate(-6.355 -7.464)" style="fill:#fff"/>
            <path data-name="Path 138" d="M268.987 192.176v32.488H263.2l-13.248-25.572v25.572h-4.315v-32.488h5.523l13.506 26.036v-26.036z" transform="translate(-7.486 -7.494)" style="fill:#fff"/>
            <path data-name="Path 139" d="M295.16 192.176v4.363h-8.8v28.125h-4.315v-28.125h-8.76v-4.363z" transform="translate(-8.328 -7.494)" style="fill:#fff"/>
            <path data-name="Path 140" d="M322.062 192.176v32.488h-4.315v-14.712h-14.068v14.712h-4.316v-32.488h4.316v13.367h14.067v-13.367z" transform="translate(-9.123 -7.494)" style="fill:#fff"/>
            <path data-name="Path 141" d="M329.4 215.955c.114.156.41.51.885 1.068a11.434 11.434 0 0 0 1.9 1.717 13.674 13.674 0 0 0 2.826 1.578 9.3 9.3 0 0 0 3.668.7 9 9 0 0 0 5.114-1.3 4.293 4.293 0 0 0 1.92-3.8 4.221 4.221 0 0 0-1.446-3.2 9.549 9.549 0 0 0-4.6-1.992c-.173-.031-.446-.086-.819-.162s-.778-.155-1.209-.232-.849-.162-1.252-.255a9.619 9.619 0 0 0-.992-.185 11.892 11.892 0 0 1-3.064-1.043 9.537 9.537 0 0 1-2.5-1.807 7.776 7.776 0 0 1-1.683-2.573 8.759 8.759 0 0 1-.6-3.336 10.864 10.864 0 0 1 .625-3.661 8.277 8.277 0 0 1 1.964-3.1 9.69 9.69 0 0 1 3.43-2.156 13.935 13.935 0 0 1 5.027-.81 16.022 16.022 0 0 1 4.919.649 13.251 13.251 0 0 1 3.259 1.509 8.721 8.721 0 0 1 1.941 1.694l.929 1.16-3.324 3.3a36.905 36.905 0 0 0-.819-.974 8.752 8.752 0 0 0-1.499-1.33 8.989 8.989 0 0 0-2.33-1.161 10.382 10.382 0 0 0-3.388-.487 8.288 8.288 0 0 0-2.87.441 5.861 5.861 0 0 0-1.963 1.16 4.393 4.393 0 0 0-1.122 1.578 4.318 4.318 0 0 0 .712 4.525 5.915 5.915 0 0 0 3.646 1.857c.23.031.546.093.949.185s.827.178 1.273.255.87.156 1.273.233.734.147.993.209a13.994 13.994 0 0 1 3.97 1.392 10.266 10.266 0 0 1 2.784 2.181 8.565 8.565 0 0 1 1.639 2.738 9.043 9.043 0 0 1 .539 3.11 10.636 10.636 0 0 1-.6 3.5 8.272 8.272 0 0 1-1.985 3.132 10.143 10.143 0 0 1-3.6 2.252 15.369 15.369 0 0 1-5.5.858 14.9 14.9 0 0 1-5.458-.892 15.892 15.892 0 0 1-3.733-1.993 10.845 10.845 0 0 1-2.179-2.056q-.713-.953-.841-1.139z" transform="translate(-9.941 -7.464)" style="fill:#fff"/>
        </g>
        <g data-name="Apple Music">
            <g data-name="Group 101" style="clip-path:url(#a90094521b)" transform="translate(182.583)">
                <path data-name="Path 58" d="M25.261 4.635A6.487 6.487 0 0 0 26.763 0a6.487 6.487 0 0 0-4.291 2.212 6.075 6.075 0 0 0-1.538 4.455 5.408 5.408 0 0 0 4.327-2.032" transform="translate(-9.185)" style="fill:#fff"/>
                <path data-name="Path 59" d="M17.56 12.507c-2.39-.142-4.422 1.351-5.563 1.351s-2.889-1.28-4.78-1.245a7.052 7.052 0 0 0-5.992 3.625c-2.568 4.409-.678 10.949 1.82 14.54 1.213 1.777 2.674 3.733 4.6 3.662 1.819-.071 2.532-1.174 4.744-1.174s2.852 1.174 4.779 1.138c2-.036 3.246-1.778 4.459-3.556a15.736 15.736 0 0 0 2-4.088 6.46 6.46 0 0 1-3.891-5.86 6.578 6.578 0 0 1 3.138-5.51 6.84 6.84 0 0 0-5.314-2.878" transform="translate(0 -5.52)" style="fill:#fff"/>
                <path data-name="Path 60" d="M73.827 30.308V10.682H73.7l-8.07 19.626h-3.082L54.46 10.682h-.13v19.626h-3.785V3.641h4.8l8.663 21.252h.149l8.65-21.252h4.823v26.667z" transform="translate(-22.214 -1.608)" style="fill:#fff"/>
                <path data-name="Path 61" d="M123 36.023h-3.84v-3.29h-.093a6.122 6.122 0 0 1-6.048 3.64c-4.248 0-6.845-2.754-6.845-7.207V16.582h4.007v11.809c0 2.956 1.41 4.546 4.174 4.546 2.894 0 4.638-2 4.638-5.026V16.582H123z" transform="translate(-46.664 -7.323)" style="fill:#fff"/>
                <path data-name="Path 62" d="M149.49 15.953c4.545 0 7.495 2.513 7.625 6.1h-3.767c-.223-1.885-1.614-3.068-3.859-3.068-2.17 0-3.618 1.054-3.618 2.606 0 1.219.891 2.051 3.005 2.532l3.172.721c3.989.924 5.51 2.476 5.51 5.285 0 3.548-3.32 5.988-7.921 5.988-4.879 0-7.81-2.384-8.181-6.08h3.97c.371 2.033 1.762 3.031 4.211 3.031 2.411 0 3.9-1 3.9-2.587 0-1.257-.723-2-2.857-2.477l-3.172-.739c-3.711-.85-5.547-2.624-5.547-5.452 0-3.474 3.043-5.858 7.532-5.858" transform="translate(-62.169 -7.045)" style="fill:#fff"/>
                <path data-name="Path 63" d="M175.147 5.57a2.31 2.31 0 1 1 2.319 2.291 2.3 2.3 0 0 1-2.319-2.291m.316 5.137h4.007v19.441h-4.007z" transform="translate(-76.975 -1.448)" style="fill:#fff"/>
                <path data-name="Path 64" d="M202.218 22.995a4.423 4.423 0 0 0-4.582-3.715c-3.1 0-5.139 2.569-5.139 6.745 0 4.269 2.059 6.745 5.176 6.745a4.287 4.287 0 0 0 4.545-3.6h3.859c-.427 4.139-3.748 6.948-8.441 6.948-5.584 0-9.22-3.807-9.22-10.09 0-6.173 3.636-10.072 9.183-10.072 5.028 0 8.088 3.216 8.441 7.041z" transform="translate(-82.807 -7.046)" style="fill:#fff"/>
            </g>
        </g>
        <path data-name="Path 142" d="M27.034 51.149 26.1 48.3h-4.915l-.934 2.854H18.57l3.98-11.9h2.25l3.963 11.9zm-3.378-10.208-1.977 5.8h3.927z" transform="translate(39.93 254.823)" style="fill:#fff"/>
        <path data-name="Path 143" d="M40.083 39.24v11.908h-2.166l-4.969-9.372v9.372H31.34V39.24h2.067l5.059 9.539V39.24z" transform="translate(38.634 254.825)" style="fill:#fff"/>
        <path data-name="Path 144" d="M47.689 39.24a7.452 7.452 0 0 1 2.687.449 5.539 5.539 0 0 1 1.959 1.251 5.262 5.262 0 0 1 1.2 1.885 6.723 6.723 0 0 1 .4 2.361 6.425 6.425 0 0 1-.44 2.44 5.224 5.224 0 0 1-1.24 1.876 5.525 5.525 0 0 1-1.968 1.207 7.525 7.525 0 0 1-2.6.423h-3.2V39.24zm4.555 5.96a5.287 5.287 0 0 0-.27-1.709 3.9 3.9 0 0 0-.809-1.383 3.814 3.814 0 0 0-1.357-.934 4.875 4.875 0 0 0-1.9-.344h-1.801v8.7h1.806a4.843 4.843 0 0 0 1.9-.344 3.873 3.873 0 0 0 1.348-.925 3.935 3.935 0 0 0 .818-1.374 5.1 5.1 0 0 0 .27-1.691" transform="translate(37.3 254.825)" style="fill:#fff"/>
        <path data-name="Path 145" d="M69.224 51.149 68.29 48.3h-4.915l-.934 2.854H60.76l3.98-11.9h2.246l3.963 11.9zm-3.378-10.208-1.977 5.8H67.8z" transform="translate(35.649 254.823)" style="fill:#fff"/>
        <path data-name="Path 146" d="M87 42.213a5.638 5.638 0 0 0-.3-.388 2.988 2.988 0 0 0-.62-.564 4.234 4.234 0 0 0-1.006-.511 4.137 4.137 0 0 0-1.456-.22 3.873 3.873 0 0 0-1.752.379 3.955 3.955 0 0 0-1.294 1.022 4.534 4.534 0 0 0-.791 1.48 5.681 5.681 0 0 0-.27 1.753 5.377 5.377 0 0 0 .279 1.744 4.381 4.381 0 0 0 .8 1.462 3.991 3.991 0 0 0 1.285 1.013 3.808 3.808 0 0 0 1.743.379 4.26 4.26 0 0 0 1.465-.22 4.008 4.008 0 0 0 1.015-.528 3.355 3.355 0 0 0 .656-.608c.162-.2.279-.361.359-.458l1.294 1c-.054.079-.18.247-.368.5a4.15 4.15 0 0 1-.854.81 6.146 6.146 0 0 1-1.438.766 5.806 5.806 0 0 1-2.121.335 5.7 5.7 0 0 1-2.408-.493 5.368 5.368 0 0 1-1.815-1.339 5.861 5.861 0 0 1-1.15-1.973 7.343 7.343 0 0 1-.4-2.4 7.213 7.213 0 0 1 .4-2.44 5.922 5.922 0 0 1 1.159-1.982 5.458 5.458 0 0 1 1.815-1.339 5.672 5.672 0 0 1 2.39-.484 6.174 6.174 0 0 1 1.968.282 6.461 6.461 0 0 1 1.384.661 4.815 4.815 0 0 1 .881.749c.216.247.359.432.44.546z" transform="translate(33.914 254.864)" style="fill:#fff"/>
        <path data-name="Path 147" d="M100.079 39.24v11.908h-1.617v-5.39h-5.275v5.39H91.57V39.24h1.617v4.9h5.274v-4.9z" transform="translate(32.523 254.825)" style="fill:#fff"/>
        <path data-name="Path 148" d="m110.924 51.149-.934-2.849h-4.915l-.934 2.854h-1.68l3.98-11.9h2.246l3.963 11.9zm-3.378-10.208-1.977 5.8h3.931z" transform="translate(31.417 254.823)" style="fill:#fff"/>
        <path data-name="Path 149" d="M123.973 39.24v11.908h-2.165l-4.96-9.372v9.372h-1.618V39.24h2.07l5.059 9.539V39.24z" transform="translate(30.122 254.825)" style="fill:#fff"/>
        <path data-name="Path 150" d="M136.818 42.213a5.638 5.638 0 0 0-.3-.388 2.989 2.989 0 0 0-.62-.564 4.234 4.234 0 0 0-1.006-.511 4.137 4.137 0 0 0-1.456-.22 3.873 3.873 0 0 0-1.752.379 3.955 3.955 0 0 0-1.294 1.022 4.535 4.535 0 0 0-.791 1.48 5.681 5.681 0 0 0-.27 1.753 5.377 5.377 0 0 0 .279 1.744 4.381 4.381 0 0 0 .8 1.462 3.991 3.991 0 0 0 1.285 1.013 3.808 3.808 0 0 0 1.743.379 4.225 4.225 0 0 0 1.465-.22 4.008 4.008 0 0 0 1.015-.528 3.356 3.356 0 0 0 .656-.608c.162-.2.279-.361.359-.458l1.294 1c-.054.079-.18.247-.368.5a4.149 4.149 0 0 1-.854.81 5.834 5.834 0 0 1-1.438.766 6 6 0 0 1-2.121.335 5.7 5.7 0 0 1-2.408-.493 5.369 5.369 0 0 1-1.815-1.339 5.861 5.861 0 0 1-1.15-1.973 7.342 7.342 0 0 1-.4-2.4 7.212 7.212 0 0 1 .4-2.44 5.921 5.921 0 0 1 1.159-1.982 5.457 5.457 0 0 1 1.815-1.339 5.672 5.672 0 0 1 2.39-.484 6.273 6.273 0 0 1 1.977.282 6.461 6.461 0 0 1 1.384.661 4.816 4.816 0 0 1 .881.749 5 5 0 0 1 .431.546z" transform="translate(28.859 254.864)" style="fill:#fff"/>
        <path data-name="Path 151" d="M148.758 51.148h-7.368V39.24h7.062v1.6h-5.445v3.312h4.861v1.6h-4.861v3.787h5.751z" transform="translate(27.467 254.825)" style="fill:#fff"/>
        <path data-name="Path 152" d="M163.725 39.24v1.6h-3.3v10.308h-1.615V40.843h-3.28v-1.6z" transform="translate(26.032 254.825)" style="fill:#fff"/>
        <path data-name="Path 153" d="M176.717 45.174a7.119 7.119 0 0 1-.4 2.361 6.057 6.057 0 0 1-1.141 1.982 5.379 5.379 0 0 1-1.806 1.356 5.623 5.623 0 0 1-2.426.5 5.7 5.7 0 0 1-2.408-.493 5.368 5.368 0 0 1-1.815-1.339 5.861 5.861 0 0 1-1.15-1.973 7.3 7.3 0 0 1-.4-2.4 7.045 7.045 0 0 1 .4-2.4 6.05 6.05 0 0 1 1.159-1.991 5.505 5.505 0 0 1 1.815-1.356 6.037 6.037 0 0 1 4.78 0 5.3 5.3 0 0 1 1.815 1.356 6.05 6.05 0 0 1 1.159 1.991 7.133 7.133 0 0 1 .4 2.413m-5.769-4.642a3.924 3.924 0 0 0-1.743.379 3.815 3.815 0 0 0-1.285 1.031 4.554 4.554 0 0 0-.8 1.48 5.644 5.644 0 0 0-.279 1.753 5.339 5.339 0 0 0 .279 1.744 4.511 4.511 0 0 0 .8 1.471 4.016 4.016 0 0 0 1.285 1.022 4.2 4.2 0 0 0 3.486 0 3.9 3.9 0 0 0 1.285-1.022 4.4 4.4 0 0 0 .791-1.471 5.8 5.8 0 0 0 0-3.5 4.534 4.534 0 0 0-.791-1.48 3.925 3.925 0 0 0-1.285-1.031 3.808 3.808 0 0 0-1.743-.379" transform="translate(25.053 254.863)" style="fill:#fff"/>
        <path data-name="Path 154" d="m198.705 39.24-2.767 11.908h-1.986l-2.525-8.825-2.507 8.825h-2l-2.78-11.908h1.626l2.219 9.477 2.7-9.477h1.527l2.678 9.477 2.237-9.477z" transform="translate(23.129 254.825)" style="fill:#fff"/>
        <path data-name="Rectangle 31" transform="translate(223.452 294.065)" style="fill:#fff" d="M0 0h1.617v11.899H0z"/>
        <path data-name="Path 155" d="M216.113 39.24v11.908h-2.165l-4.969-9.372v9.372h-1.609V39.24h2.067l5.059 9.539V39.24z" transform="translate(20.772 254.825)" style="fill:#fff"/>
        <path data-name="Path 156" d="M233.5 48.268v2.88h-8.7V39.24h8.455v2.88H228.3v1.718h3.792v2.651H228.3v1.779z" transform="translate(19.004 254.825)" style="fill:#fff"/>
        <path data-name="Path 157" d="M241.867 39.24a4.958 4.958 0 0 1 1.671.273 3.7 3.7 0 0 1 1.357.81 3.844 3.844 0 0 1 .916 1.348 4.731 4.731 0 0 1 .332 1.85 5.032 5.032 0 0 1-.323 1.867 3.787 3.787 0 0 1-.89 1.348 3.826 3.826 0 0 1-1.357.828 5.1 5.1 0 0 1-1.707.282h-2.2v3.294h-3.5v-11.9zm-.683 5.734a1.377 1.377 0 0 0 1.087-.423 1.515 1.515 0 0 0 .009-1.991 1.365 1.365 0 0 0-1.1-.44h-1.519v2.854z" transform="translate(17.85 254.825)" style="fill:#fff"/>
        <path data-name="Rectangle 32" transform="translate(265.431 294.065)" style="fill:#fff" d="M0 0h3.495v11.899H0z"/>
        <path data-name="Path 158" d="M254.47 45.175a7.115 7.115 0 0 1 .413-2.466 5.857 5.857 0 0 1 1.2-1.982 5.424 5.424 0 0 1 1.932-1.321 6.755 6.755 0 0 1 2.606-.476 6.137 6.137 0 0 1 2.031.308 6.073 6.073 0 0 1 1.483.74 5.137 5.137 0 0 1 .988.89 4.21 4.21 0 0 1 .521.766l-2.633 1.85a4.743 4.743 0 0 0-.27-.476 2.5 2.5 0 0 0-.467-.52 2.666 2.666 0 0 0-.692-.423 2.455 2.455 0 0 0-2.022.088 2.4 2.4 0 0 0-.809.713 3.461 3.461 0 0 0-.5 1.048 4.449 4.449 0 0 0-.18 1.26 4.343 4.343 0 0 0 .18 1.251 3.462 3.462 0 0 0 .5 1.031 2.257 2.257 0 0 0 .809.7 2.324 2.324 0 0 0 1.087.255 2.442 2.442 0 0 0 1.078-.211 2.56 2.56 0 0 0 .71-.493 2.371 2.371 0 0 0 .422-.564c.1-.185.162-.317.2-.4l2.669 1.788c-.054.088-.18.291-.368.6a4.414 4.414 0 0 1-.881.96 6 6 0 0 1-1.527.9 5.912 5.912 0 0 1-2.291.4 6.755 6.755 0 0 1-2.606-.476 5.519 5.519 0 0 1-1.932-1.312 5.7 5.7 0 0 1-1.2-1.964 6.333 6.333 0 0 1-.449-2.457" transform="translate(15.993 254.862)" style="fill:#fff"/>
        <path data-name="Path 159" d="M278.693 44.06a4.777 4.777 0 0 1 1.321.476 3.837 3.837 0 0 1 1.006.775 3.466 3.466 0 0 1 .656 1.013 3.143 3.143 0 0 1 .234 1.207 3.858 3.858 0 0 1-.288 1.462 3.349 3.349 0 0 1-.908 1.233 4.69 4.69 0 0 1-1.563.854 7.262 7.262 0 0 1-2.282.317 7.158 7.158 0 0 1-2.309-.335 7.609 7.609 0 0 1-1.617-.766 5.66 5.66 0 0 1-1.006-.828c-.243-.264-.4-.44-.476-.528l1.986-1.885a4.125 4.125 0 0 0 .377.388 4.47 4.47 0 0 0 .737.555 6.189 6.189 0 0 0 1.06.5 3.775 3.775 0 0 0 1.321.22 1.772 1.772 0 0 0 1.042-.273.846.846 0 0 0 .4-.713.894.894 0 0 0-.261-.59 1.691 1.691 0 0 0-.907-.414c-.072-.026-.216-.053-.413-.1s-.413-.088-.638-.141-.44-.1-.656-.141-.359-.079-.44-.106a5.367 5.367 0 0 1-1.24-.405 3.65 3.65 0 0 1-.97-.7 2.926 2.926 0 0 1-.638-1 4.007 4.007 0 0 1 .117-2.942 3.348 3.348 0 0 1 .979-1.207 4.46 4.46 0 0 1 1.537-.766 7.126 7.126 0 0 1 2.013-.264 6.353 6.353 0 0 1 2.076.3 6.9 6.9 0 0 1 1.474.678 4.978 4.978 0 0 1 .916.731c.216.229.341.379.386.432L279.744 43a18.22 18.22 0 0 1-.431-.352 6.089 6.089 0 0 0-.665-.449 5.047 5.047 0 0 0-.854-.388 3.008 3.008 0 0 0-1.024-.167 1.422 1.422 0 0 0-.979.273.872.872 0 0 0-.027 1.286 1.631 1.631 0 0 0 .881.423c.063.009.2.035.386.079s.4.088.62.132.431.1.638.132a2.2 2.2 0 0 1 .4.088" transform="translate(14.269 254.858)" style="fill:#fff"/>
        <path data-name="Path 160" d="M289.724 51.422a5.088 5.088 0 0 1-2.291-.484 4.774 4.774 0 0 1-1.626-1.295 5.367 5.367 0 0 1-.961-1.85 7.571 7.571 0 0 1-.314-2.167V39.25h3.5v7.073a2.913 2.913 0 0 0 .108.793 2.244 2.244 0 0 0 .306.678 1.669 1.669 0 0 0 .521.476 1.5 1.5 0 0 0 .764.176 1.5 1.5 0 0 0 1.294-.652 2.148 2.148 0 0 0 .314-.678 2.914 2.914 0 0 0 .108-.793V39.25h3.5v6.377a7.7 7.7 0 0 1-.3 2.114 5.5 5.5 0 0 1-.926 1.858 4.723 4.723 0 0 1-1.621 1.321 5.247 5.247 0 0 1-2.372.5" transform="translate(12.943 254.823)" style="fill:#fff"/>
        <path data-name="Path 161" d="M308.495 51.148v-7.962l-2.327 6.888H304l-2.345-6.888v7.962h-3.215V39.24h4.8l1.9 5.716 1.9-5.716h4.69v11.908z" transform="translate(11.531 254.825)" style="fill:#fff"/>
        <path data-name="Path 162" d="M325.625 51.148v-7.962l-2.325 6.888h-2.165l-2.345-6.888v7.962h-3.22V39.24h4.8l1.887 5.716 1.914-5.716h4.681v11.908z" transform="translate(9.793 254.825)" style="fill:#fff"/>
        <path data-name="Path 163" d="M341.388 48.268v2.88h-8.7V39.24h8.455v2.88h-4.96v1.718h3.8v2.651h-3.8v1.779z" transform="translate(8.056 254.825)" style="fill:#fff"/>
        <path data-name="Path 164" d="M351.943 46.418q.162.106.35.211a1.939 1.939 0 0 1 .422.379 3.8 3.8 0 0 1 .5.784 13.055 13.055 0 0 1 .6 1.409c.018.053.072.185.153.4s.162.432.252.652l.323.881H350.8c-.108-.282-.207-.546-.306-.8-.09-.238-.171-.458-.243-.652s-.126-.344-.162-.432c-.063-.194-.135-.379-.207-.573a1.82 1.82 0 0 0-.3-.511 1.427 1.427 0 0 0-.458-.37 1.514 1.514 0 0 0-.71-.141h-.836v3.488h-3.5V39.24h5.274a5.869 5.869 0 0 1 2.049.326 4.362 4.362 0 0 1 1.465.854 3.445 3.445 0 0 1 .872 1.251 4.063 4.063 0 0 1 .288 1.515 3.653 3.653 0 0 1-.261 1.444 3.475 3.475 0 0 1-.611.978 2.774 2.774 0 0 1-.683.573 4.242 4.242 0 0 1-.539.238m-2.866-1.444a1.4 1.4 0 0 0 1.087-.423 1.488 1.488 0 0 0 .009-1.991 1.371 1.371 0 0 0-1.087-.44h-1.518v2.854z" transform="translate(6.899 254.825)" style="fill:#fff"/>
        <path data-name="Path 165" d="M367 39.24a4.959 4.959 0 0 1 1.671.273 3.7 3.7 0 0 1 1.357.81 3.844 3.844 0 0 1 .917 1.348 4.732 4.732 0 0 1 .332 1.85 5.032 5.032 0 0 1-.323 1.867 3.787 3.787 0 0 1-.89 1.348 3.827 3.827 0 0 1-1.357.828 5.1 5.1 0 0 1-1.707.282h-2.2v3.294h-3.5v-11.9zm-.683 5.734a1.377 1.377 0 0 0 1.087-.423 1.515 1.515 0 0 0 .009-1.991 1.365 1.365 0 0 0-1.1-.44H364.8v2.854z" transform="translate(5.153 254.825)" style="fill:#fff"/>
        <path data-name="Path 166" d="M381.693 46.418q.162.106.35.211a1.939 1.939 0 0 1 .422.379 3.8 3.8 0 0 1 .5.784 13.062 13.062 0 0 1 .6 1.409c.018.053.072.185.153.4s.162.432.252.652l.323.881h-3.747c-.108-.282-.207-.546-.305-.8-.09-.238-.171-.458-.243-.652s-.126-.344-.162-.432c-.063-.194-.135-.379-.207-.573a1.821 1.821 0 0 0-.3-.511 1.429 1.429 0 0 0-.458-.37 1.515 1.515 0 0 0-.71-.141h-.836v3.488h-3.5V39.24h5.274a5.869 5.869 0 0 1 2.049.326 4.364 4.364 0 0 1 1.465.854 3.446 3.446 0 0 1 .872 1.251 3.891 3.891 0 0 1 .288 1.515 3.524 3.524 0 0 1-.863 2.422 2.647 2.647 0 0 1-.692.573 3.744 3.744 0 0 1-.539.238m-2.857-1.444a1.4 1.4 0 0 0 1.087-.423 1.488 1.488 0 0 0 .009-1.991 1.371 1.371 0 0 0-1.087-.44h-1.519v2.854z" transform="translate(3.88 254.825)" style="fill:#fff"/>
        <path data-name="Rectangle 33" transform="translate(389.15 294.065)" style="fill:#fff" d="M0 0h3.495v11.899H0z"/>
        <path data-name="Path 167" d="M401.782 51.148h-9.542v-3.7l4.852-5.329h-4.511V39.24h8.8v3.409l-5.095 5.619h5.5z" transform="translate(2.013 254.825)" style="fill:#fff"/>
        <path data-name="Path 168" d="M413.358 48.268v2.88h-8.7V39.24h8.455v2.88h-4.96v1.718h3.792v2.651h-3.792v1.779z" transform="translate(.753 254.825)" style="fill:#fff"/>
        <path data-name="Path 169" d="M422.553 44.06a4.778 4.778 0 0 1 1.321.476 3.837 3.837 0 0 1 1.006.775 3.467 3.467 0 0 1 .656 1.013 3.143 3.143 0 0 1 .234 1.207 3.858 3.858 0 0 1-.288 1.462 3.349 3.349 0 0 1-.908 1.233 4.69 4.69 0 0 1-1.563.854 8.25 8.25 0 0 1-4.591-.018 7.608 7.608 0 0 1-1.62-.762 5.658 5.658 0 0 1-1.006-.828c-.243-.264-.4-.44-.476-.528l1.986-1.885a4.131 4.131 0 0 0 .377.388 4.467 4.467 0 0 0 .737.555 5.88 5.88 0 0 0 1.06.5 3.774 3.774 0 0 0 1.321.22 1.772 1.772 0 0 0 1.042-.273.846.846 0 0 0 .4-.713.894.894 0 0 0-.261-.59 1.691 1.691 0 0 0-.907-.414c-.072-.026-.216-.053-.413-.1s-.413-.088-.638-.141-.44-.1-.656-.141-.359-.079-.44-.106a5.366 5.366 0 0 1-1.24-.405 3.649 3.649 0 0 1-.97-.7 2.927 2.927 0 0 1-.638-1 4.008 4.008 0 0 1 .117-2.942 3.349 3.349 0 0 1 .979-1.207 4.46 4.46 0 0 1 1.536-.766 7.127 7.127 0 0 1 2.013-.264 6.354 6.354 0 0 1 2.076.3 6.9 6.9 0 0 1 1.474.678 4.977 4.977 0 0 1 .917.731c.216.229.341.379.386.432L423.6 43a18.22 18.22 0 0 1-.431-.352 6.091 6.091 0 0 0-.665-.449 5.05 5.05 0 0 0-.854-.388 2.972 2.972 0 0 0-1.024-.167 1.422 1.422 0 0 0-.979.273.872.872 0 0 0-.027 1.286 1.631 1.631 0 0 0 .881.423c.063.009.2.035.386.079s.4.088.62.132.431.1.638.132a2.165 2.165 0 0 1 .413.088" transform="translate(-.329 254.858)" style="fill:#fff"/>
        <path data-name="Path 170" d="M430.393 51.333a1.56 1.56 0 0 1-.638-.132 1.786 1.786 0 0 1-.53-.352 1.644 1.644 0 0 1-.359-.52 1.5 1.5 0 0 1-.126-.625 1.573 1.573 0 0 1 .485-1.154 1.679 1.679 0 0 1 .53-.352 1.56 1.56 0 0 1 .638-.132 1.634 1.634 0 0 1 .647.132 1.582 1.582 0 0 1 .53.352 1.642 1.642 0 0 1 .359.52 1.511 1.511 0 0 1 .126.634 1.688 1.688 0 0 1-.126.625 1.747 1.747 0 0 1-.359.52 1.786 1.786 0 0 1-.53.352 1.572 1.572 0 0 1-.647.132m1.59-3.946h-3.136V39.24h3.136z" transform="translate(-1.69 254.825)" style="fill:#fff"/>
    </g>
</svg>
