<svg xmlns="http://www.w3.org/2000/svg" width="285" height="160.506" viewBox="0 0 285 160.506">
    <defs>
        <clipPath id="cgg90v2g3a">
            <path data-name="Rectangle 10" style="fill:#fff" d="M0 0h285v160.506H0z"/>
        </clipPath>
    </defs>
    <g data-name="Group 93">
        <path data-name="Path 19" d="M68.983 77.406h-62.4V54.35l31.729-33.209H8.8V3.373h57.538v21.152L33.023 59.532h35.96z" transform="translate(-3.28 -1.681)" style="fill:#fff"/>
        <path data-name="Path 20" d="M202.52 59.532v17.874h-56.794V3.373h55.207v17.768h-32.469v10.788h24.854v16.5h-24.854v11.103z" transform="translate(-73.041 -1.681)" style="fill:#fff"/>
        <g data-name="Group 92">
            <g data-name="Group 91" style="clip-path:url(#cgg90v2g3a)">
                <path data-name="Path 21" d="M336.119 65.35c.632 1.481 4.737 12.057 4.737 12.057h-24.422s-3.685-9.413-4.632-11.739c-1.79-4.759-3.474-9.942-10.948-9.942h-5.474v21.681h-22.739V3.374h34.318c20.318 0 30.424 11.422 30.424 24.537 0 14.172-10.527 19.248-13.475 20.095 2.842 1.586 6.421 2.537 12.211 17.345m-21.264-35.325c0-4.548-3.474-8.884-9.58-8.884h-9.9v17.873h9.9c6 0 9.58-4.125 9.58-8.99" transform="translate(-136.496 -1.681)" style="fill:#fff"/>
                <path data-name="Path 22" d="M450.309 0c25.055 0 40.109 16.6 40.109 38.709 0 20.306-13.369 38.709-40.109 38.709-26.318 0-40-17.874-40-38.709 0-22 14.948-38.709 40-38.709m0 18.4c-10.527 0-16.738 9.307-16.738 20.307s6 20.2 16.738 20.2c10 0 16.843-8.25 16.843-20.2 0-10.471-5.684-20.307-16.843-20.307" transform="translate(-205.418)" style="fill:#fff"/>
                <path data-name="Path 23" d="M31.22 168.719V194.6H22.5l-9.163-16.27v16.27H6.052v-25.881h9.713l8.135 14.417v-14.417z" transform="translate(-3.03 -84.076)" style="fill:#fff"/>
                <path data-name="Path 24" d="M82.109 188.348v6.252H62.351v-25.881h19.207v6.21h-11.3v3.771h8.647v5.767h-8.644v3.881z" transform="translate(-31.216 -84.076)" style="fill:#fff"/>
                <path data-name="Path 25" d="M123.709 168.719h7.948l-7.249 25.881h-11.517l-7.654-25.876h8.352l5.078 18.483z" transform="translate(-52.687 -84.076)" style="fill:#fff"/>
                <path data-name="Path 26" d="M182.327 188.348v6.252h-19.758v-25.881h19.207v6.21h-11.3v3.771h8.647v5.767h-8.647v3.881z" transform="translate(-81.389 -84.076)" style="fill:#fff"/>
                <path data-name="Path 27" d="M229.116 190.382c.221.518 1.655 4.215 1.655 4.215h-8.537s-1.288-3.29-1.619-4.1c-.625-1.664-1.214-3.475-3.827-3.475h-1.913v7.578h-7.948v-25.88h12c7.1 0 10.634 3.992 10.634 8.576a7.075 7.075 0 0 1-4.71 7.023c.994.555 2.245.887 4.268 6.062m-7.433-12.346a3.136 3.136 0 0 0-3.348-3.1h-3.459v6.247h3.459a3.122 3.122 0 0 0 3.348-3.142" transform="translate(-103.598 -84.077)" style="fill:#fff"/>
                <path data-name="Path 28" d="M293.3 168.719v6.21h-7.617V194.6h-7.948v-19.67h-7.58v-6.21z" transform="translate(-135.252 -84.076)" style="fill:#fff"/>
                <path data-name="Path 29" d="M336.8 194.6h-8.058l-1.692-4.731h-10.004l-1.656 4.731h-7.727l9.309-25.876h10.56zM319 183.986h6.182l-3.091-8.5z" transform="translate(-154.03 -84.076)" style="fill:#fff"/>
                <path data-name="Path 30" d="M390.568 186.208c0 4.4-3.422 8.391-11.48 8.391-8.168 0-11.591-4.62-12.327-5.4l4.526-4.1a11.283 11.283 0 0 0 7.948 3.622c1.95 0 3.274-.85 3.274-2.144 0-.887-.7-1.774-2.649-2.181-.663-.147-4.085-.85-4.894-1.035-4.084-.813-6.991-3.068-6.991-7.5 0-5.1 4.3-8.317 11.076-8.317 7.285 0 10.6 4.14 11.038 4.658l-4.488 4.14c-.92-.7-3.422-2.957-6.771-2.957-2.024 0-2.906.887-2.906 2.033 0 1 .735 1.885 2.612 2.292.552.111 4.011.813 4.71.961 4.379.887 7.322 3.844 7.322 7.541" transform="translate(-183.618 -83.488)" style="fill:#fff"/>
                <path data-name="Path 31" d="M441.268 168.719v6.21h-7.617V194.6H425.7v-19.67h-7.58v-6.21z" transform="translate(-209.331 -84.076)" style="fill:#fff"/>
                <path data-name="Path 32" d="M490.129 188.348v6.252h-19.758v-25.881h19.207v6.21h-11.3v3.771h8.647v5.767h-8.647v3.881z" transform="translate(-235.489 -84.076)" style="fill:#fff"/>
                <path data-name="Path 33" d="M516.205 194.6v-25.881h10.229c9.787 0 14.975 5.656 14.975 12.938 0 7.1-5.041 12.938-14.975 12.938zm7.911-19.666v13.418h1.84c5.556 0 7.4-3.327 7.4-6.69 0-3.66-2.061-6.728-7.4-6.728z" transform="translate(-258.435 -84.076)" style="fill:#fff"/>
                <path data-name="Path 34" d="M38.236 263.289c0 7.066-5.5 13.478-18.439 13.478-13.12 0-18.615-7.421-19.8-8.668l7.269-6.591a18.126 18.126 0 0 0 12.766 5.818c3.132 0 5.26-1.366 5.26-3.444 0-1.425-1.123-2.85-4.255-3.5-1.064-.237-6.56-1.366-7.86-1.662-6.56-1.306-11.228-4.928-11.228-12.053 0-8.193 6.915-13.359 17.789-13.359 11.7 0 17.02 6.65 17.729 7.481l-7.21 6.65c-1.477-1.128-5.5-4.749-10.873-4.749-3.251 0-4.669 1.425-4.669 3.265 0 1.6 1.182 3.028 4.2 3.681.886.179 6.442 1.306 7.564 1.544 7.033 1.425 11.761 6.175 11.761 12.112" transform="translate(0 -116.261)" style="fill:#fff"/>
                <path data-name="Path 35" d="M104.353 233.306c14.065 0 22.516 9.321 22.516 21.73 0 11.4-7.5 21.73-22.516 21.73-14.774 0-22.457-10.034-22.457-21.73 0-12.35 8.392-21.73 22.457-21.73m0 10.331c-5.91 0-9.4 5.225-9.4 11.4s3.369 11.34 9.4 11.34c5.614 0 9.456-4.631 9.456-11.34 0-5.878-3.191-11.4-9.456-11.4" transform="translate(-41.001 -116.261)" style="fill:#fff"/>
                <path data-name="Path 36" d="M239.184 271.067c-1.478 1.069-7.151 5.7-18.911 5.7-15.542 0-23.461-10.331-23.461-21.849 0-12.35 9.337-21.612 22.515-21.612 10.7 0 16.37 6.115 18.261 9.5l-9.574 6.471c-.532-1.009-2.955-5.64-8.688-5.64-5.969 0-9.455 5.106-9.455 11.281s3.486 11.458 10.578 11.458a14.8 14.8 0 0 0 6.915-1.424v-4.394h-6.383v-8.372h18.2z" transform="translate(-98.533 -116.261)" style="fill:#fff"/>
                <path data-name="Path 37" d="M313 233.306c14.065 0 22.516 9.321 22.516 21.73 0 11.4-7.5 21.73-22.516 21.73-14.774 0-22.457-10.034-22.457-21.73 0-12.35 8.392-21.73 22.457-21.73m0 10.331c-5.91 0-9.4 5.225-9.4 11.4s3.369 11.34 9.4 11.34c5.614 0 9.456-4.631 9.456-11.34 0-5.878-3.191-11.4-9.456-11.4" transform="translate(-145.458 -116.261)" style="fill:#fff"/>
                <path data-name="Path 38" d="M411.345 233.306c14.065 0 22.516 9.321 22.516 21.73 0 11.4-7.5 21.73-22.516 21.73-14.774 0-22.457-10.034-22.457-21.73 0-12.35 8.392-21.73 22.457-21.73m0 10.331c-5.91 0-9.4 5.225-9.4 11.4s3.369 11.34 9.4 11.34c5.614 0 9.456-4.631 9.456-11.34 0-5.878-3.191-11.4-9.456-11.4" transform="translate(-194.695 -116.261)" style="fill:#fff"/>
                <path data-name="Path 39" d="M487.826 276.761V235.2h16.429c15.72 0 24.052 9.084 24.052 20.78 0 11.4-8.1 20.781-24.052 20.781zm12.706-31.586v21.552h2.955c8.923 0 11.879-5.343 11.879-10.747 0-5.878-3.31-10.806-11.879-10.806z" transform="translate(-244.228 -117.205)" style="fill:#fff"/>
            </g>
        </g>
    </g>
</svg>
