<svg id="Layer_1" data-name="Layer 1" xmlns="http://www.w3.org/2000/svg" viewBox="0 0 32 32"><defs><style>.cls-1{fill:#fff;}.cls-2{fill:none;}</style></defs><path class="cls-1" d="M13.65,11.93l-.13,0c-.42,0-.85,0-1.27.1a9.93,9.93,0,0,0-5.83,2.55A8.87,8.87,0,0,0,4,23.72c1.73,6.55,9,8.88,14.07,4.62a10.29,10.29,0,0,0,3.65-7.92c.1-3,0-5.92,0-8.88V11c2.1,1.24,4.2,2.21,6.66,1.94V8.35c-4.21-.36-6.2-2.87-6.73-6.8H16.9a1.62,1.62,0,0,0,0,.18q0,8.9,0,17.8a13.55,13.55,0,0,1-.18,2.3,4.61,4.61,0,0,1-1.68,3A4.35,4.35,0,0,1,8.57,23a3.86,3.86,0,0,1,1.93-5.28,9.66,9.66,0,0,1,1.26-.49c.63-.18,1.26-.31,1.89-.47Z"/><path class="cls-1" d="M13.65,11.93v4.8c-.63.16-1.26.29-1.89.47a9.66,9.66,0,0,0-1.26.49A3.86,3.86,0,0,0,8.57,23,4.35,4.35,0,0,0,15,24.83a4.61,4.61,0,0,0,1.68-3,13.55,13.55,0,0,0,.18-2.3q0-8.9,0-17.8a1.62,1.62,0,0,1,0-.18h4.74c.53,3.93,2.52,6.44,6.73,6.8V13c-2.46.27-4.56-.7-6.66-1.94v.53c0,3,.06,5.92,0,8.88A10.29,10.29,0,0,1,18,28.34C12.9,32.6,5.68,30.27,4,23.72a8.87,8.87,0,0,1,2.47-9.17A9.93,9.93,0,0,1,12.25,12c.42-.05.85-.07,1.27-.1Z"/><rect class="cls-2" width="32" height="32"/></svg>