<svg data-name="Component 12 – 4" xmlns="http://www.w3.org/2000/svg" width="197.945" height="197.945" viewBox="0 0 197.945 197.945">
    <defs>
        <clipPath id="ngvzp74m0a">
            <path data-name="Rectangle 23" style="fill:none" d="M0 0h197.945v197.945H0z"/>
        </clipPath>
    </defs>
    <g data-name="Group 102" style="clip-path:url(#ngvzp74m0a)">
        <path data-name="Path 59" d="M188.906 98.127a90.78 90.78 0 1 1-90.78-90.78 90.78 90.78 0 0 1 90.78 90.78" transform="translate(.846 .846)" style="fill:#fff"/>
        <path data-name="Rectangle 22" transform="translate(21.07 92.947)" style="fill:#e50029" d="M0 0h6.343v20.557H0z"/>
        <path data-name="Path 60" d="M45.481 103.9V90.158l-4.229 11.894h-3.936l-4.258-11.894V103.9h-5.843V83.345h8.722l3.435 9.867 3.466-9.867h8.517V103.9z" transform="translate(3.135 9.602)" style="fill:#e50029"/>
        <path data-name="Path 61" d="M61.848 83.345a9.547 9.547 0 0 1 3.028.47 7.036 7.036 0 0 1 2.472 1.411 6.579 6.579 0 0 1 1.662 2.32 7.924 7.924 0 0 1 .6 3.2 8.232 8.232 0 0 1-.589 3.216A6.558 6.558 0 0 1 67.4 96.3a6.846 6.846 0 0 1-2.458 1.424 9.588 9.588 0 0 1-3.1.485h-4v5.7h-6.349V83.345zm-1.25 9.9a2.6 2.6 0 0 0 1.982-.729 2.462 2.462 0 0 0 .69-1.752 2.487 2.487 0 0 0-.675-1.693 2.536 2.536 0 0 0-2-.759h-2.759v4.934z" transform="translate(5.933 9.602)" style="fill:#e50029"/>
        <path data-name="Path 62" d="M83.333 95.737q.293.177.631.368a3.292 3.292 0 0 1 .764.66 7.305 7.305 0 0 1 .91 1.352 22.105 22.105 0 0 1 1.1 2.437l.28.69.455 1.131q.264.7.587 1.527h-6.813q-.293-.733-.558-1.381-.236-.616-.441-1.13a44.815 44.815 0 0 1-.294-.749 16.95 16.95 0 0 0-.381-.984 3.388 3.388 0 0 0-.543-.881 2.627 2.627 0 0 0-.836-.646 2.9 2.9 0 0 0-1.293-.25h-1.528v6.02H69.03V83.345h9.57a11.293 11.293 0 0 1 3.715.558 7.973 7.973 0 0 1 2.658 1.483 5.968 5.968 0 0 1 1.587 2.159 6.56 6.56 0 0 1 .528 2.613 5.982 5.982 0 0 1-.47 2.5 6.1 6.1 0 0 1-1.1 1.688 4.942 4.942 0 0 1-1.249.984 5.156 5.156 0 0 1-.939.41m-5.2-2.5a2.608 2.608 0 0 0 1.967-.729 2.429 2.429 0 0 0 .7-1.752 2.459 2.459 0 0 0-.69-1.693 2.541 2.541 0 0 0-1.982-.759h-2.752v4.934z" transform="translate(7.953 9.602)" style="fill:#e50029"/>
        <path data-name="Path 63" d="M86.226 93.672a11.651 11.651 0 0 1 .764-4.258 9.726 9.726 0 0 1 2.2-3.407 10.237 10.237 0 0 1 3.51-2.262 13.8 13.8 0 0 1 9.382 0 10.205 10.205 0 0 1 3.524 2.262 9.757 9.757 0 0 1 2.2 3.407 12.128 12.128 0 0 1 .059 8.311 9.794 9.794 0 0 1-5.6 5.815 13.994 13.994 0 0 1-9.735.014 10.167 10.167 0 0 1-3.494-2.334 9.54 9.54 0 0 1-2.104-3.42 12.048 12.048 0 0 1-.706-4.126m15.858 0a7.533 7.533 0 0 0-.293-2.1 5.673 5.673 0 0 0-.881-1.806 4.205 4.205 0 0 0-3.524-1.733 4.227 4.227 0 0 0-1.968.455 4.359 4.359 0 0 0-1.468 1.219 5.672 5.672 0 0 0-.91 1.791 7.179 7.179 0 0 0-.323 2.174 7.379 7.379 0 0 0 .308 2.158 5.538 5.538 0 0 0 .911 1.792 4.193 4.193 0 0 0 3.45 1.658 4.427 4.427 0 0 0 1.924-.41 4.352 4.352 0 0 0 1.482-1.145 5.234 5.234 0 0 0 .955-1.777 7.352 7.352 0 0 0 .338-2.276" transform="translate(9.934 9.554)" style="fill:#e50029"/>
        <path data-name="Path 64" d="M120.349 83.345h6.343l-5.785 20.555h-9.192l-6.108-20.557h6.667l4.053 14.684z" transform="translate(12.167 9.602)" style="fill:#e50029"/>
        <path data-name="Path 65" d="M141.367 98.939v4.961h-15.8V83.345h15.359v4.963h-9.015v2.966h6.9v4.581h-6.9v3.084z" transform="translate(14.467 9.602)" style="fill:#e50029"/>
        <path data-name="Path 66" d="M141.419 103.9V83.345h8.164a15.424 15.424 0 0 1 5.169.793 10.875 10.875 0 0 1 3.748 2.172 8.918 8.918 0 0 1 2.276 3.26 11.05 11.05 0 0 1 .014 8.032 9.123 9.123 0 0 1-2.246 3.275 10.646 10.646 0 0 1-3.745 2.217 15.378 15.378 0 0 1-5.213.807zm6.343-15.594v10.633h1.463a7.486 7.486 0 0 0 2.792-.455 4.892 4.892 0 0 0 1.813-1.2 4.379 4.379 0 0 0 .98-1.7 6.587 6.587 0 0 0 .292-1.947 6.464 6.464 0 0 0-.321-2.051 4.449 4.449 0 0 0-1.024-1.7 4.848 4.848 0 0 0-1.829-1.156 7.674 7.674 0 0 0-2.7-.425z" transform="translate(16.293 9.602)" style="fill:#e50029"/>
        <path data-name="Path 67" d="M62.829 111.505v4.963H56.75v15.594h-6.343v-15.594h-6.049v-4.963z" transform="translate(5.111 12.847)" style="fill:#e50029"/>
        <path data-name="Path 68" d="M80.493 132.063h-6.432l-1.35-3.763h-7.988l-1.323 3.763h-6.166l7.43-20.557h8.429zm-14.213-8.429h4.934l-2.467-6.755z" transform="translate(6.594 12.847)" style="fill:#e50029"/>
        <path data-name="Path 69" d="M90.982 119.923a8.985 8.985 0 0 1 2.393.822 7.236 7.236 0 0 1 1.836 1.337 5.819 5.819 0 0 1 1.189 1.746 5.122 5.122 0 0 1 .426 2.085 6.218 6.218 0 0 1-.529 2.526 5.789 5.789 0 0 1-1.644 2.129 8.3 8.3 0 0 1-2.849 1.468 13.914 13.914 0 0 1-4.141.544 13.091 13.091 0 0 1-7.136-1.911 10.031 10.031 0 0 1-1.836-1.43q-.661-.686-.865-.92l3.612-3.258a8.9 8.9 0 0 0 .69.676 8.011 8.011 0 0 0 1.336.955 10.7 10.7 0 0 0 1.923.867 7.274 7.274 0 0 0 2.394.381 3.412 3.412 0 0 0 1.894-.471 1.424 1.424 0 0 0 .719-1.236 1.456 1.456 0 0 0-.47-1.015 3.142 3.142 0 0 0-1.645-.72q-.206-.059-.748-.162t-1.16-.235q-.617-.132-1.19-.251a22.122 22.122 0 0 1-.807-.176 9.613 9.613 0 0 1-2.246-.706 6.257 6.257 0 0 1-1.763-1.207 5.15 5.15 0 0 1-1.16-1.735 6.074 6.074 0 0 1-.41-2.324 6.01 6.01 0 0 1 .617-2.75 5.918 5.918 0 0 1 1.777-2.089 8.346 8.346 0 0 1 2.79-1.324 13.546 13.546 0 0 1 3.656-.456 12.4 12.4 0 0 1 3.774.514 12.263 12.263 0 0 1 2.672 1.174 8.785 8.785 0 0 1 1.659 1.262q.587.6.7.749l-3.583 3.289-.778-.6a9.554 9.554 0 0 0-2.76-1.453 5.757 5.757 0 0 0-1.865-.294 2.7 2.7 0 0 0-1.777.471 1.459 1.459 0 0 0-.543 1.145 1.537 1.537 0 0 0 .484 1.086 3.083 3.083 0 0 0 1.6.734 46.39 46.39 0 0 1 1.831.368c.402.089.787.166 1.16.234s.627.123.764.162" transform="translate(8.967 12.798)" style="fill:#e50029"/>
        <path data-name="Path 70" d="M113.6 111.505v4.963h-6.079v15.594h-6.343v-15.594h-6.051v-4.963z" transform="translate(10.96 12.847)" style="fill:#e50029"/>
        <path data-name="Path 71" d="M129.069 127.1v4.963h-15.8v-20.558h15.359v4.963h-9.015v2.966h6.9v4.581h-6.9v3.085z" transform="translate(13.05 12.847)" style="fill:#e50029"/>
        <path data-name="Path 72" d="M98.972.861A98.111 98.111 0 1 1 .861 98.972 98.111 98.111 0 0 1 98.972.861m0-.861a98.972 98.972 0 1 0 98.972 98.972A99.084 99.084 0 0 0 98.972 0" style="fill:#fff"/>
        <path data-name="Path 73" d="M74.4 50.193v26.685h-9.037L55.872 60.1v16.778h-7.548V50.193h10.065l8.424 14.867V50.193z" transform="translate(5.568 5.783)" style="fill:#1a1818"/>
        <path data-name="Path 74" d="M95.632 70.435v6.443H75.123V50.193H95.06v6.443h-11.7v3.851h8.959v5.946h-8.962v4z" transform="translate(8.655 5.783)" style="fill:#1a1818"/>
        <path data-name="Path 75" d="m135.312 50.193-6.518 26.685h-8.884l-5.11-15.744-5.032 15.743h-8.919l-6.52-26.685h8.425l3.125 16.468 5.49-16.468h7.395l5.566 16.468 3.049-16.468z" transform="translate(10.868 5.783)" style="fill:#1a1818"/>
    </g>
</svg>
